<svg xmlns="http://www.w3.org/2000/svg" width="512" height="512" enable-background="new 0 0 512 512" viewBox="0 0 512 512"><path fill="#b68117" d="M256,271c14.54,0,26.33,11.79,26.33,26.33c0,14.55-11.79,26.34-26.33,26.34
						s-26.33-11.79-26.33-26.34C229.67,282.79,241.46,271,256,271z"/><path fill="#bd4917" d="M256 115.46c-10.57 0-20.93.91-31 2.64V74.12h62v43.98C276.93 116.37 266.57 115.46 256 115.46zM383.07 167.23c-8.94-8.73-18.78-16.56-29.37-23.31l21.859-28.2 29.641 22.97L383.07 167.23z"/><path fill="#f3ac1e" d="M256,271c-14.54,0-26.33,11.79-26.33,26.33c0,14.55,11.79,26.34,26.33,26.34
						s26.33-11.79,26.33-26.34C282.33,282.79,270.54,271,256,271z M256,169.2c70.77,0,128.14,57.37,128.14,128.13
						c0,70.77-57.37,128.14-128.14,128.14c-70.77,0-128.14-57.37-128.14-128.14C127.86,226.57,185.23,169.2,256,169.2z"/><polygon fill="#fc611f" points="328.34 32.79 328.34 74.12 287 74.12 225 74.12 183.66 74.12 183.66 32.79"/><path fill="#fc611f" d="M353.7,143.92c10.59,6.75,20.43,14.58,29.37,23.31c33.81,33.03,54.81,79.11,54.81,130.1
						c0,100.45-81.43,181.88-181.88,181.88S74.12,397.78,74.12,297.33c0-89.87,65.2-164.51,150.88-179.23
						c10.07-1.73,20.43-2.64,31-2.64c10.57,0,20.93,0.91,31,2.64C311.21,122.26,333.77,131.2,353.7,143.92z M384.14,297.33
						c0-70.76-57.37-128.13-128.14-128.13c-70.77,0-128.14,57.37-128.14,128.13c0,70.77,57.37,128.14,128.14,128.14
						C326.77,425.47,384.14,368.1,384.14,297.33z"/><path d="M225 128.1c-5.523 0-10-4.477-10-10V74.12c0-5.523 4.477-10 10-10s10 4.477 10 10v43.98C235 123.623 230.523 128.1 225 128.1zM287 128.1c-5.522 0-10-4.477-10-10V74.12c0-5.523 4.478-10 10-10s10 4.477 10 10v43.98C297 123.623 292.522 128.1 287 128.1zM383.063 177.23c-2.142 0-4.298-.685-6.121-2.098-4.364-3.384-5.159-9.666-1.774-14.031l16-20.635-13.83-10.718-15.734 20.297c-3.384 4.366-9.664 5.161-14.03 1.777-4.364-3.383-5.16-9.665-1.776-14.03l21.859-28.2c3.385-4.364 9.666-5.16 14.028-1.778l29.641 22.97c2.098 1.625 3.463 4.016 3.796 6.648.333 2.631-.393 5.288-2.019 7.384l-22.13 28.54C389.002 175.899 386.049 177.23 383.063 177.23z"/><path d="M256,489.21c-105.803,0-191.88-86.077-191.88-191.88c0-45.521,16.228-89.658,45.695-124.278
						c29.128-34.223,69.434-57.239,113.492-64.808c21.509-3.695,43.874-3.695,65.387,0c25.147,4.32,48.828,13.487,70.387,27.246
						c11.08,7.063,21.504,15.335,30.977,24.585c37.288,36.429,57.823,85.172,57.823,137.255
						C447.88,403.133,361.803,489.21,256,489.21z M256,125.46c-9.807,0-19.667,0.84-29.307,2.496
						C144.081,142.148,84.12,213.38,84.12,297.33c0,94.774,77.105,171.88,171.88,171.88c94.774,0,171.88-77.105,171.88-171.88
						c0-46.652-18.396-90.315-51.798-122.947c-8.489-8.29-17.829-15.702-27.757-22.03c-19.308-12.322-40.509-20.529-63.019-24.397
						C275.667,126.3,265.807,125.46,256,125.46z"/><path d="M256,435.47c-76.171,0-138.14-61.969-138.14-138.14c0-76.165,61.969-138.13,138.14-138.13s138.14,61.965,138.14,138.13
						C394.14,373.501,332.171,435.47,256,435.47z M256,179.2c-65.143,0-118.14,52.993-118.14,118.13
						c0,65.143,52.998,118.14,118.14,118.14s118.14-52.997,118.14-118.14C374.14,232.193,321.143,179.2,256,179.2z"/><path d="M256 333.67c-20.032 0-36.33-16.302-36.33-36.34 0-20.032 16.298-36.33 36.33-36.33s36.33 16.298 36.33 36.33C292.33 317.368 276.032 333.67 256 333.67zM256 281c-9.004 0-16.33 7.325-16.33 16.33 0 9.01 7.326 16.34 16.33 16.34 9.005 0 16.33-7.33 16.33-16.34C272.33 288.325 265.005 281 256 281zM328.34 84.12H183.66c-5.523 0-10-4.477-10-10V32.79c0-5.523 4.477-10 10-10h144.68c5.522 0 10 4.477 10 10v41.33C338.34 79.643 333.862 84.12 328.34 84.12zM193.66 64.12h124.68V42.79H193.66V64.12z"/><path d="M231.62,281c-2.559,0-5.119-0.977-7.071-2.929l-37.5-37.5c-3.905-3.905-3.905-10.237,0-14.143s10.237-3.905,14.143,0
						l37.5,37.5c3.905,3.905,3.905,10.237,0,14.143C236.739,280.023,234.179,281,231.62,281z"/></svg>